<svg xmlns="http://www.w3.org/2000/svg" width="360" height="82" viewBox="0 0 360 82"><style type="text/css"><![CDATA[
	.st0{fill:#42AD2C;}
]]></style><path class="st0" d="M57.5 30h-36.2v-16.4c0-2.2-1.8-4-4-4h-9c-2.2 0-4 1.8-4 4v58.9c0 2.2 1.8 4 4 4h9c2.2 0 4-1.8 4-4v-27.5h40.2v-11c-.1-2.2-1.8-4-4-4m29.2 0h-9c-2.2 0-4 1.8-4 4v38.6c0 2.2 1.8 4 4 4h9c2.2 0 4-1.8 4-4v-38.6c0-2.2-1.8-4-4-4m0-20.4h-9c-2.2 0-4 1.8-4 4v7.7c0 2.2 1.8 4 4 4h9c2.2 0 4-1.8 4-4v-7.7c0-2.2-1.8-4-4-4m29.4 0h-9c-2.2 0-4 1.8-4 4v58.9c0 2.2 1.8 4 4 4h9c2.2 0 4-1.8 4-4v-58.9c0-2.2-1.8-4-4-4m171.7 20.4h-12.8v26.6h16.8v-22.7c0-2.2-1.8-3.9-4-3.9m53.1 0h-11.8c-2.2 0-4 1.8-4 4v11h15.8c2.2 0 4-1.8 4-4v-7c0-2.2-1.8-4-4-4M44.5 72.5c0 2.2 1.8 4 4 4h8.9c2.2 0 4-1.8 4-4v-22.6h-16.9v22.6zm171.2-42.5h-79.2c-2.2 0-4 1.8-4 4v38.6c0 2.2 1.8 4 4 4h9c2.2 0 4-1.8 4-4v-27.6h70.9v-10.4c0-2.5-2.1-4.6-4.7-4.6"/><path class="st0" d="M203.5 72.5c0 2.2 1.8 4 4 4h8.9c2.2 0 4-1.8 4-4v-22.6h-16.8v22.6zm-35.4 0c0 2.2 1.8 4 4 4h8.9c2.2 0 4-1.8 4-4v-22.6h-16.8v22.6zm101.9-27.5v-15h-33.2c-2.2 0-4 1.8-4 4v11h37.2zm-15.3 16.5v15h33.1c2.2 0 4-1.8 4-4v-11h-37.1zm53.4-31.5c-2.2 0-4 1.8-4 4v38.6c0 2.2 1.8 4 4 4h9c2.2 0 4-1.8 4-4v-42.6h-13zm-75.3 42.5c0 2.2 1.8 4 4 4h13v-26.6h-17v22.6zm118-34.6c-1.1 0-1.5-.3-1.9-.6-.4-.4-.8-1.2-.8-3.3 0-2.2.4-2.9.8-3.3.4-.4.7-.6 1.9-.6h2c1.1 0 1.5.2 1.9.6.4.4.8 1.2.8 3.3 0 2.2-.4 2.9-.8 3.3-.4.4-.7.6-1.9.6h-2zm1.8-.7c.9 0 1.2-.1 1.4-.4.3-.3.5-1 .5-2.9s-.2-2.5-.5-2.9c-.3-.3-.6-.4-1.4-.4h-1.8c-.9 0-1.2.1-1.4.4-.3.3-.6.9-.6 2.9 0 1.9.2 2.5.6 2.9.3.3.6.4 1.4.4h1.8zm-.2-2.7c-.1-.1-.2-.1-.4-.1h-.8v1.6h-1v-4.3h2.5c.4 0 .6.1.7.2.2.2.3.5.3 1 0 .8-.2 1-.7 1.1.5.1.7.2.7.8 0 .5 0 .9.1 1.1h-1.1c-.1-.2-.1-.6-.1-1-.1-.3-.2-.3-.2-.4zm0-1.9c-.1-.1-.1-.1-.3-.1h-1v1.1h1c.2 0 .2 0 .3-.1 0-.1.1-.2.1-.5 0-.2 0-.3-.1-.4z"/></svg>